<svg width="898" height="354" viewBox="0 0 898 354" fill="none" xmlns="http://www.w3.org/2000/svg">
<path d="M306.12 235.367V286.49H323.98V256.013C322.899 254.964 321.883 253.915 320.834 252.768C316.181 247.82 311.527 242.249 306.12 235.367Z" fill="#231F20"/>
<path d="M57.4815 124.106C60.6603 126.728 64.4291 128.072 68.6894 128.072C72.9497 128.072 76.489 126.728 79.5695 124.073C82.5845 121.485 84.6491 117.781 85.7306 113.095L107.917 17.2051C108.31 15.4682 108.704 14.9766 108.769 14.8783C108.9 14.7472 108.999 14.6817 109.261 14.6817C109.457 14.6817 109.687 14.6817 109.752 14.78C109.818 14.8783 110.211 15.4027 110.604 17.2379L133.708 111.325C135.15 116.798 137.248 120.927 140.033 123.615C142.917 126.433 146.817 127.875 151.634 127.875C156.452 127.875 160.417 126.269 163.268 123.058C165.956 120.043 167.758 116.044 168.676 111.227L190.829 0.196622H174.771L153.699 108.409C153.371 110.178 152.945 111.555 152.355 112.44C152.028 112.964 151.667 113.161 151.077 113.161C150.16 113.161 149.832 112.833 149.603 112.472C149.209 111.85 148.554 110.604 147.898 108.245L124.598 13.4692C123.516 8.88112 121.583 5.44009 118.83 3.27717C116.077 1.08146 112.833 0 109.195 0C105.557 0 102.477 1.14699 99.7242 3.40823C97.0041 5.6367 95.0706 9.1105 93.9891 13.6985L71.9666 108.54C71.475 110.932 70.8195 112.046 70.3607 112.571C69.8691 113.128 69.312 113.39 68.6238 113.39C68.2633 113.39 67.8374 113.292 67.3786 112.636C66.9525 112.046 66.3626 110.866 65.8383 108.54L42.3738 0.229426H26.2829L51.0583 112.734C52.1397 117.683 54.2698 121.517 57.4487 124.139L57.4815 124.106Z" fill="#231F20"/>
<path d="M184.963 79.5048C184.963 88.5825 187.06 96.8738 191.157 104.116C195.253 111.392 201.021 117.258 208.231 121.485C215.441 125.746 223.634 127.876 232.613 127.876C241.068 127.876 248.868 125.975 255.75 122.141C262.697 118.306 268.334 112.506 272.529 104.936L273.578 103.035L261.059 96.2511L260.01 98.0863C257.094 103.264 253.226 107.033 248.507 109.327C243.657 111.654 238.315 112.834 232.613 112.834C225.895 112.834 219.963 111.195 214.949 107.918C209.902 104.641 206.035 100.184 203.446 94.6781C202.135 91.9253 201.218 88.9758 200.693 85.8298H275.151V76.9486C275.151 68.2314 273.283 60.3662 269.612 53.5169C265.909 46.6676 260.698 41.162 254.078 37.2294C247.426 33.2968 239.528 31.2977 230.581 31.2977C221.635 31.2977 213.54 33.4934 206.691 37.8193C199.841 42.1123 194.434 48.0112 190.665 55.2866C186.864 62.5291 184.963 70.6892 184.963 79.5048ZM205.445 60.2351C208.002 55.9748 211.443 52.5337 215.67 50.0759C219.93 47.618 224.945 46.3727 230.614 46.3727C236.284 46.3727 241.166 47.5525 245.394 49.8465C249.654 52.1405 253.095 55.4177 255.586 59.6124C257.782 63.2829 259.06 67.576 259.42 72.4262H201.021C201.775 68.002 203.25 63.9055 205.413 60.2351H205.445Z" fill="#231F20"/>
<path d="M45.4217 168.184C53.8112 163.104 63.1511 160.548 73.5397 160.548C83.9283 160.548 93.2682 163.104 101.625 168.184C110.015 173.231 116.602 180.08 121.517 188.633C126.4 197.187 128.858 206.56 128.858 216.719C128.858 226.878 126.4 236.218 121.517 244.673C118.961 249.097 115.946 253.03 112.472 256.471C125.647 246.508 134.135 230.974 142.753 212.983C143.835 210.754 144.916 208.493 145.998 206.199C144.851 196.466 141.836 187.552 137.182 179.359C130.857 168.315 122.206 159.565 111.26 153.142C100.281 146.686 87.8937 143.474 74.0641 143.474C61.7419 143.474 50.5668 146.391 40.5059 152.29C33.3945 156.386 27.3318 161.466 22.3177 167.529V194.598C23.1698 192.533 24.1856 190.501 25.3326 188.568C30.3467 180.014 37.0321 173.165 45.3889 168.118L45.4217 168.184Z" fill="#231F20"/>
<path d="M287.898 210.755C281.803 202.496 275.707 194.467 269.186 187.487C271.939 193.615 273.413 200.596 273.544 208.363H173.263C171.92 211.083 170.543 213.934 169.134 216.916L168.61 218.03C166.119 223.306 163.53 228.812 160.744 234.187C159.991 235.661 159.237 237.103 158.45 238.545C159.991 243.789 162.055 248.737 164.71 253.522C170.969 264.533 179.588 273.316 190.534 279.739C201.447 286.195 213.769 289.374 227.402 289.374C240.281 289.374 251.948 286.523 262.402 280.755C272.889 274.987 281.279 266.336 287.636 254.833L273.807 247.295C268.793 256.144 262.238 262.534 254.045 266.5C245.885 270.432 237.004 272.398 227.402 272.398C216.063 272.398 206.133 269.613 197.58 264.009C189.026 258.405 182.538 250.998 178.146 241.691C175.361 235.825 173.656 229.566 173.001 222.815H291.405V215.605C290.848 214.851 290.324 214.163 289.799 213.442L287.866 210.755H287.898Z" fill="#231F20"/>
<path d="M787.306 192.862C775.64 209.903 772.067 230.91 760.106 247.558C749.619 262.174 733.659 272.595 715.176 271.907C677.849 270.531 660.578 233.826 644.979 205.381C632.853 183.293 619.057 160.32 595.002 149.734C574.651 140.788 550.302 141.378 530.606 151.733C508.616 163.269 498.031 186.701 488.265 208.297C486.725 211.771 485.152 215.179 483.546 218.62C477.09 232.515 469.552 246.64 457.755 256.767C437.043 274.529 407.942 276.036 382.838 268.007C349.903 257.488 329.224 231.467 309.659 204.66C308.48 203.054 307.3 201.415 306.12 199.809C293.536 182.539 279.28 163.072 260.076 152.487C252.637 148.358 244.411 145.769 236.054 144.261C202.299 138.166 177.131 156.682 161.368 185.128C149.898 205.807 141.901 228.648 127.056 247.328C108.212 271.055 72.4254 281.378 45.4216 264.959C37.0648 259.913 30.3794 253.129 25.3653 244.641C21.0067 237.267 18.5488 229.206 18.0244 220.521C17.9589 219.276 17.8934 217.998 17.8934 216.687C17.8934 215.376 17.9589 214.131 18.0244 212.885V173.363C18.0244 173.363 17.8934 173.461 17.8934 173.527V82.323H0V216.654C0 230.32 3.27723 242.609 9.79879 253.686C12.2567 257.717 14.9439 261.551 18.0244 264.959C23.1696 270.858 29.2979 275.84 36.311 279.903C67.6407 298.059 111.293 290.259 135.642 264.009C156.157 241.921 163.793 212.82 179.294 187.684C194.631 162.843 223.437 152.29 250.572 166.776C251.064 167.038 251.522 167.3 251.981 167.595C266.892 176.148 278.821 191.125 291.274 208.068C309.627 232.974 327.356 258.438 355.048 273.611C377.398 285.868 404.042 292.193 429.407 287.801C448.677 284.459 466.111 274.562 478.597 259.487C485.938 250.638 491.575 240.512 496.589 230.221C499.047 225.175 501.308 220.128 503.602 215.147C509.96 201.186 515.99 186.078 526.837 174.87C542.928 158.255 570.915 156.125 591.037 166.35C610.47 176.214 621.383 196.925 631.215 215.376C639.277 230.516 647.076 246.083 657.989 259.421C688.27 296.42 744.146 298.682 773.018 258.929C782.882 245.329 786.683 229.435 793.959 214.622C799.301 203.742 806.674 193.747 815.752 185.718C835.481 168.185 861.829 161.467 887.686 160.254C888.472 160.221 897.026 159.959 897.026 160.057V143.213C846.59 143.213 809.82 159.861 787.306 192.764V192.862Z" fill="url(#paint0_linear_2284_2)"/>
<path d="M311.331 199.744L313.133 202.169C317.033 207.576 320.539 212.328 323.98 216.818V82.4213H306.12V192.6C307.3 194.205 308.447 195.811 309.594 197.351L311.331 199.777V199.744Z" fill="#231F20"/>
<path d="M345.544 241.397C356.326 251.589 367.468 258.733 379.593 262.961C372.548 258.11 366.747 251.917 362.323 244.412C357.374 235.99 354.851 226.65 354.851 216.458C354.851 206.266 357.374 196.959 362.323 188.503C367.337 180.016 374.022 173.232 382.346 168.185C390.736 163.105 400.076 160.549 410.464 160.549C420.853 160.549 430.226 163.105 438.55 168.185C446.939 173.232 453.526 180.016 458.442 188.503C463.325 196.959 465.783 206.233 465.783 216.458C465.783 226.682 463.325 235.99 458.442 244.412C454.837 250.671 450.249 255.98 444.744 260.372C462.08 251.196 471.256 234.58 479.613 216.851L479.907 216.294C481.022 213.869 482.136 211.411 483.283 208.92C482.333 198.466 479.252 188.7 474.009 179.688C467.553 168.677 458.901 159.861 447.922 153.339C437.009 146.818 424.491 143.541 410.464 143.541C396.438 143.541 384.411 146.818 373.269 153.339C362.126 159.861 353.278 168.644 346.756 179.557C340.202 190.535 336.958 202.726 336.958 216.163C336.958 222.848 337.777 229.206 339.383 235.269C341.447 237.497 343.512 239.529 345.544 241.397Z" fill="#231F20"/>
<path d="M500.521 232.221C499.275 234.81 497.965 237.399 496.654 239.955V286.524H514.482V216.491C514.482 209.379 515.432 202.628 517.365 196.369C514.056 202.596 510.909 209.576 507.567 217.048C505.469 221.701 503.077 227.01 500.521 232.254V232.221Z" fill="#231F20"/>
<path d="M627.446 217.472C619.515 202.594 612.109 189.78 602.867 180.539C604.67 183.128 606.275 185.946 607.586 188.928C611.421 197.514 613.354 206.756 613.354 216.751V286.522H631.247V224.617C630.854 223.863 630.461 223.175 630.068 222.421C629.215 220.782 628.298 219.078 627.413 217.472H627.446Z" fill="#231F20"/>
<path d="M652.68 210.592C656.645 218.064 660.381 225.208 664.281 231.729C662.807 226.682 662.053 221.406 662.053 215.868C662.053 205.676 664.511 196.401 669.525 188.077C674.539 179.688 681.191 173.035 689.581 168.021C697.905 163.073 707.179 160.549 717.371 160.549C727.563 160.549 737.132 163.04 745.456 168.021C753.846 173.035 760.466 179.688 765.48 188.077C769.544 194.796 771.969 202.169 772.69 210.133C775.836 203.021 779.572 196.401 783.668 190.437C784.258 189.618 784.848 188.798 785.438 187.979C784.193 184.997 782.718 182.08 781.046 179.262C774.525 168.349 765.742 159.664 754.698 153.208C743.621 146.752 731.201 143.541 717.371 143.541C703.542 143.541 691.121 146.818 680.044 153.339C669 159.861 660.25 168.677 653.827 179.688C650.353 185.685 647.764 192.01 646.191 198.663C647.043 200.203 647.928 201.809 648.747 203.349C650.058 205.774 651.304 208.134 652.647 210.624L652.68 210.592Z" fill="#231F20"/>
<path d="M773.051 266.074V274.365C773.051 286.851 770.593 297.829 765.677 307.268C760.794 316.673 754.01 323.981 745.359 329.159C736.74 334.337 726.744 336.959 715.405 336.959C704.066 336.959 694.497 334.665 685.55 330.044C676.636 325.423 669.656 318.738 664.675 309.889L649.698 318.279C656.056 329.978 665.134 338.86 676.931 344.922C688.762 350.985 701.674 354 715.733 354C729.792 354 743.261 350.723 754.666 344.201C765.972 337.68 774.886 328.471 781.309 316.673C787.765 304.843 790.944 290.98 790.944 275.02V233.695C787.208 244.313 782.325 253.719 776.623 261.65C775.508 263.19 774.329 264.697 773.116 266.139L773.051 266.074Z" fill="#231F20"/>
<defs>
<linearGradient id="paint0_linear_2284_2" x1="0" y1="186.144" x2="897.058" y2="186.144" gradientUnits="userSpaceOnUse">
<stop stop-color="#F7941D"/>
<stop offset="0.15" stop-color="#E01F26"/>
<stop offset="0.3" stop-color="#662B82"/>
<stop offset="0.46" stop-color="#332F81"/>
<stop offset="0.63" stop-color="#209DD8"/>
<stop offset="0.8" stop-color="#3BA949"/>
<stop offset="1" stop-color="#FDEB07"/>
</linearGradient>
</defs>
</svg>
