<svg width="125" height="51" viewBox="0 0 125 51" fill="none" xmlns="http://www.w3.org/2000/svg">
<path d="M42.6576 33.5338V40.6579H45.1465V36.4108C44.9958 36.2647 44.8542 36.1186 44.7081 35.9587C44.0596 35.2692 43.4111 34.4928 42.6576 33.5338Z" fill="#231F20"/>
<path d="M8.01001 18.0297C8.45298 18.3951 8.97816 18.5823 9.57183 18.5823C10.1655 18.5823 10.6587 18.3951 11.088 18.0252C11.5081 17.6644 11.7958 17.1484 11.9465 16.4953L15.0382 3.13312C15.093 2.89108 15.1478 2.82258 15.1569 2.80888C15.1752 2.79061 15.1889 2.78148 15.2254 2.78148C15.2528 2.78148 15.2848 2.78148 15.2939 2.79518C15.3031 2.80888 15.3578 2.88195 15.4126 3.13768L18.6322 16.2487C18.8331 17.0114 19.1254 17.5868 19.5136 17.9612C19.9154 18.354 20.4589 18.5549 21.1302 18.5549C21.8015 18.5549 22.354 18.3311 22.7513 17.8836C23.1258 17.4635 23.377 16.9063 23.5049 16.235L26.592 0.762995H24.3543L21.4179 15.8423C21.3722 16.0889 21.3128 16.2807 21.2306 16.404C21.185 16.477 21.1347 16.5044 21.0525 16.5044C20.9247 16.5044 20.879 16.4588 20.847 16.4085C20.7922 16.3218 20.7009 16.1482 20.6096 15.8194L17.3626 2.61251C17.2119 1.97317 16.9425 1.49367 16.5589 1.19227C16.1753 0.886297 15.7232 0.735596 15.2163 0.735596C14.7094 0.735596 14.2801 0.895428 13.8965 1.21053C13.5175 1.52107 13.248 2.00514 13.0973 2.64448L10.0285 15.8605C9.96 16.1939 9.86866 16.3492 9.80472 16.4222C9.73622 16.4999 9.65859 16.5364 9.56269 16.5364C9.51245 16.5364 9.4531 16.5227 9.38916 16.4314C9.3298 16.3492 9.2476 16.1848 9.17453 15.8605L5.90476 0.767566H3.66251L7.11494 16.4451C7.26564 17.1347 7.56247 17.669 8.00544 18.0343L8.01001 18.0297Z" fill="#231F20"/>
<path d="M25.7745 11.8146C25.7745 13.0795 26.0668 14.2349 26.6376 15.2442C27.2084 16.258 28.0122 17.0754 29.0168 17.6645C30.0215 18.2582 31.1632 18.555 32.4145 18.555C33.5927 18.555 34.6796 18.2902 35.6386 17.7558C36.6067 17.2215 37.3922 16.4132 37.9767 15.3583L38.1229 15.0935L36.3784 14.1481L36.2323 14.4039C35.8258 15.1254 35.2869 15.6506 34.6293 15.9703C33.9535 16.2945 33.2091 16.4589 32.4145 16.4589C31.4783 16.4589 30.6517 16.2306 29.953 15.7739C29.2498 15.3172 28.7109 14.6961 28.3501 13.9289C28.1674 13.5453 28.0396 13.1343 27.9665 12.6959H38.3421V11.4583C38.3421 10.2436 38.0818 9.1476 37.5703 8.19315C37.0543 7.23871 36.3281 6.4715 35.4057 5.9235C34.4786 5.37549 33.3781 5.09692 32.1313 5.09692C30.8846 5.09692 29.7566 5.40289 28.8022 6.00569C27.8478 6.60393 27.0943 7.42594 26.5691 8.43975C26.0394 9.449 25.7745 10.5861 25.7745 11.8146ZM28.6287 9.12933C28.9849 8.53566 29.4644 8.05615 30.0535 7.71365C30.6472 7.37114 31.3459 7.19761 32.1359 7.19761C32.926 7.19761 33.6064 7.36201 34.1955 7.68168C34.7892 8.00135 35.2687 8.45802 35.6157 9.04256C35.9217 9.55403 36.0998 10.1523 36.15 10.8281H28.0122C28.1172 10.2116 28.3227 9.6408 28.6241 9.12933H28.6287Z" fill="#231F20"/>
<path d="M6.32948 24.1719C7.49856 23.4641 8.80006 23.1079 10.2477 23.1079C11.6954 23.1079 12.9969 23.4641 14.1614 24.1719C15.3305 24.8752 16.2484 25.8297 16.9334 27.0216C17.6138 28.2135 17.9563 29.5196 17.9563 30.9352C17.9563 32.3509 17.6138 33.6524 16.9334 34.8306C16.5772 35.4471 16.157 35.9952 15.673 36.4747C17.5088 35.0864 18.6916 32.9218 19.8926 30.4146C20.0433 30.1041 20.194 29.789 20.3447 29.4693C20.1849 28.113 19.7647 26.8709 19.1163 25.7292C18.2349 24.1902 17.0293 22.9709 15.504 22.0758C13.9742 21.1762 12.2479 20.7286 10.3208 20.7286C8.6037 20.7286 7.04645 21.1351 5.64447 21.9571C4.6535 22.5279 3.80866 23.2358 3.10995 24.0806V27.8527C3.22869 27.565 3.37025 27.2819 3.53008 27.0124C4.22879 25.8205 5.1604 24.8661 6.32491 24.1628L6.32948 24.1719Z" fill="#231F20"/>
<path d="M40.1185 30.1042C39.2691 28.9534 38.4196 27.8345 37.5109 26.8618C37.8945 27.7158 38.1 28.6885 38.1182 29.7708H24.1441C23.9569 30.1498 23.7651 30.5471 23.5687 30.9627L23.4956 31.118C23.1486 31.8532 22.7878 32.6204 22.3996 33.3694C22.2946 33.5749 22.1896 33.7758 22.08 33.9768C22.2946 34.7074 22.5823 35.397 22.9522 36.0637C23.8244 37.5981 25.0255 38.822 26.5508 39.7171C28.0715 40.6167 29.7886 41.0597 31.6883 41.0597C33.483 41.0597 35.1088 40.6624 36.5656 39.8587C38.0269 39.0549 39.196 37.8493 40.0819 36.2464L38.1548 35.1961C37.4561 36.4291 36.5427 37.3196 35.4011 37.8722C34.2639 38.4202 33.0264 38.6942 31.6883 38.6942C30.1082 38.6942 28.7245 38.306 27.5326 37.5251C26.3407 36.7442 25.4365 35.7121 24.8246 34.4152C24.4364 33.5977 24.1989 32.7255 24.1076 31.7847H40.6071V30.7801C40.5295 30.675 40.4564 30.5791 40.3833 30.4787L40.1139 30.1042H40.1185Z" fill="#231F20"/>
<path d="M109.711 27.6108C108.085 29.9855 107.587 32.9127 105.92 35.2326C104.459 37.2694 102.235 38.7216 99.6593 38.6257C94.4578 38.4339 92.0512 33.3192 89.8774 29.3553C88.1878 26.2773 86.2652 23.076 82.9132 21.601C80.0773 20.3543 76.6842 20.4365 73.9396 21.8796C70.8754 23.4871 69.4003 26.7522 68.0394 29.7617C67.8248 30.2458 67.6056 30.7207 67.3818 31.2002C66.4822 33.1365 65.4318 35.1048 63.7878 36.5159C60.9017 38.991 56.8464 39.2011 53.3483 38.0823C48.7588 36.6163 45.8772 32.9904 43.1509 29.2548C42.9865 29.031 42.822 28.8027 42.6576 28.5789C40.904 26.1723 38.9175 23.4597 36.2414 21.9846C35.2048 21.4092 34.0585 21.0484 32.894 20.8384C28.1903 19.989 24.6831 22.5691 22.4865 26.5331C20.8881 29.4146 19.7739 32.5976 17.7051 35.2007C15.0793 38.507 10.0924 39.9455 6.32947 37.6576C5.16496 36.9543 4.23335 36.009 3.53464 34.8262C2.92727 33.7987 2.58476 32.6753 2.51169 31.4651C2.50256 31.2916 2.49343 31.1135 2.49343 30.9308C2.49343 30.7481 2.50256 30.5746 2.51169 30.401V24.8936C2.51169 24.8936 2.49343 24.9073 2.49343 24.9164V12.2073H0V30.9262C0 32.8305 0.456681 34.5431 1.36546 36.0866C1.70796 36.6483 2.08242 37.1826 2.51169 37.6576C3.22866 38.4796 4.08265 39.1737 5.05992 39.74C9.4257 42.2699 15.5086 41.1831 18.9016 37.5251C21.7604 34.4472 22.8244 30.3919 24.9845 26.8893C27.1217 23.4277 31.1358 21.9572 34.9171 23.9757C34.9856 24.0122 35.0495 24.0488 35.1134 24.0899C37.1913 25.2818 38.8536 27.3688 40.5889 29.7297C43.1463 33.2004 45.6169 36.7488 49.4758 38.8632C52.5903 40.5711 56.303 41.4525 59.8376 40.8406C62.5228 40.3748 64.9523 38.9956 66.6922 36.8949C67.7152 35.6619 68.5007 34.2508 69.1994 32.8168C69.5419 32.1136 69.857 31.4103 70.1766 30.7162C71.0626 28.7707 71.9029 26.6655 73.4144 25.1037C75.6567 22.7883 79.5567 22.4915 82.3606 23.9163C85.0687 25.2909 86.5894 28.1771 87.9594 30.7481C89.0828 32.8579 90.1697 35.0271 91.6904 36.8858C95.9101 42.0416 103.696 42.3567 107.72 36.8173C109.094 34.9221 109.624 32.7072 110.638 30.6431C111.382 29.1269 112.41 27.7341 113.675 26.6152C116.424 24.1721 120.095 23.2359 123.699 23.0669C123.808 23.0623 125 23.0258 125 23.0395V20.6922C117.972 20.6922 112.848 23.0121 109.711 27.5971V27.6108Z" fill="url(#paint0_linear_2279_81)"/>
<path d="M43.3837 28.5698L43.6349 28.9077C44.1783 29.6612 44.667 30.3234 45.1465 30.949V12.2209H42.6576V27.5742C42.822 27.798 42.9819 28.0218 43.1417 28.2364L43.3837 28.5743V28.5698Z" fill="#231F20"/>
<path d="M48.1513 34.3741C49.6538 35.7944 51.2064 36.7899 52.8961 37.379C51.9143 36.7031 51.106 35.84 50.4895 34.7942C49.7999 33.6206 49.4483 32.3191 49.4483 30.8988C49.4483 29.4786 49.7999 28.1817 50.4895 27.0034C51.1882 25.8207 52.1198 24.8754 53.2797 24.1721C54.4488 23.4642 55.7503 23.108 57.198 23.108C58.6456 23.108 59.9517 23.4642 61.1116 24.1721C62.2807 24.8754 63.1986 25.8207 63.8836 27.0034C64.5641 28.1817 64.9066 29.474 64.9066 30.8988C64.9066 32.3237 64.5641 33.6206 63.8836 34.7942C63.3813 35.6665 62.742 36.4063 61.9748 37.0182C64.3905 35.7396 65.6692 33.4242 66.8337 30.9537L66.8748 30.876C67.0301 30.5381 67.1854 30.1956 67.3452 29.8485C67.2128 28.3917 66.7835 27.0308 66.0528 25.775C65.1532 24.2406 63.9476 23.0121 62.4177 22.1034C60.897 21.1946 59.1525 20.7379 57.198 20.7379C55.2434 20.7379 53.5674 21.1946 52.0148 22.1034C50.4621 23.0121 49.2291 24.236 48.3203 25.7567C47.4069 27.2866 46.9548 28.9854 46.9548 30.8577C46.9548 31.7894 47.069 32.6753 47.2928 33.5201C47.5805 33.8307 47.8682 34.1138 48.1513 34.3741Z" fill="#231F20"/>
<path d="M69.7473 33.0955C69.5737 33.4562 69.3911 33.817 69.2084 34.1732V40.6625H71.6927V30.9034C71.6927 29.9125 71.8251 28.9717 72.0946 28.0995C71.6333 28.9672 71.1949 29.9399 70.7291 30.9811C70.4368 31.6296 70.1035 32.3694 69.7473 33.1V33.0955Z" fill="#231F20"/>
<path d="M87.4342 31.0402C86.3291 28.9669 85.297 27.1814 84.0092 25.8936C84.2604 26.2543 84.4841 26.6471 84.6668 27.0626C85.2011 28.2591 85.4705 29.5469 85.4705 30.9398V40.6623H87.964V32.0358C87.9092 31.9308 87.8544 31.8348 87.7996 31.7298C87.6808 31.5015 87.5529 31.264 87.4296 31.0402H87.4342Z" fill="#231F20"/>
<path d="M90.9506 30.0814C91.5032 31.1226 92.0238 32.1182 92.5672 33.0269C92.3617 32.3237 92.2567 31.5884 92.2567 30.8166C92.2567 29.3964 92.5992 28.104 93.2979 26.9441C93.9966 25.775 94.9236 24.848 96.0927 24.1492C97.2527 23.4597 98.545 23.108 99.9653 23.108C101.386 23.108 102.719 23.4551 103.879 24.1492C105.048 24.848 105.97 25.775 106.669 26.9441C107.235 27.8802 107.573 28.9078 107.674 30.0175C108.112 29.0265 108.633 28.104 109.204 27.2729C109.286 27.1587 109.368 27.0445 109.45 26.9304C109.277 26.5148 109.071 26.1084 108.838 25.7156C107.93 24.1949 106.706 22.9847 105.167 22.0851C103.623 21.1855 101.892 20.7379 99.9653 20.7379C98.0381 20.7379 96.3074 21.1946 94.7638 22.1034C93.2248 23.0121 92.0055 24.2406 91.1104 25.775C90.6264 26.6107 90.2656 27.4921 90.0464 28.4191C90.1651 28.6338 90.2884 28.8575 90.4026 29.0722C90.5853 29.4101 90.7588 29.7389 90.946 30.086L90.9506 30.0814Z" fill="#231F20"/>
<path d="M107.724 37.8128V38.9682C107.724 40.7081 107.382 42.238 106.697 43.5532C106.016 44.8638 105.071 45.8822 103.865 46.6037C102.664 47.3253 101.271 47.6906 99.6913 47.6906C98.1112 47.6906 96.7777 47.3709 95.531 46.727C94.2889 46.0831 93.3162 45.1515 92.622 43.9185L90.535 45.0876C91.421 46.7179 92.686 47.9555 94.33 48.8003C95.9786 49.6452 97.7778 50.0653 99.737 50.0653C101.696 50.0653 103.573 49.6086 105.162 48.6999C106.738 47.7911 107.98 46.5078 108.875 44.8638C109.775 43.2152 110.218 41.2835 110.218 39.0595V33.3009C109.697 34.7805 109.017 36.0912 108.222 37.1963C108.067 37.4109 107.902 37.621 107.733 37.8219L107.724 37.8128Z" fill="#231F20"/>
<defs>
<linearGradient id="paint0_linear_2279_81" x1="0" y1="26.6746" x2="125.005" y2="26.6746" gradientUnits="userSpaceOnUse">
<stop stop-color="#F7941D"/>
<stop offset="0.15" stop-color="#E01F26"/>
<stop offset="0.3" stop-color="#662B82"/>
<stop offset="0.46" stop-color="#332F81"/>
<stop offset="0.63" stop-color="#209DD8"/>
<stop offset="0.8" stop-color="#3BA949"/>
<stop offset="1" stop-color="#FDEB07"/>
</linearGradient>
</defs>
</svg>
