<svg width="771" height="319" viewBox="0 0 771 319" fill="none" xmlns="http://www.w3.org/2000/svg">
<path d="M49.365 111.682C52.0949 114.04 55.3316 115.249 58.9903 115.249C62.6491 115.249 65.6886 114.04 68.3341 111.653C70.9234 109.325 72.6965 105.994 73.6252 101.78L92.6789 15.5419C93.0166 13.9798 93.3543 13.5377 93.4106 13.4493C93.5232 13.3314 93.6077 13.2724 93.8328 13.2724C94.0017 13.2724 94.1987 13.2724 94.255 13.3609C94.3113 13.4493 94.6489 13.9208 94.9867 15.5713L114.828 100.188C116.067 105.11 117.868 108.824 120.26 111.24C122.737 113.775 126.086 115.072 130.223 115.072C134.36 115.072 137.766 113.628 140.214 110.739C142.522 108.028 144.07 104.432 144.858 100.1L163.884 0.245434H150.093L131.996 97.565C131.715 99.1565 131.349 100.394 130.842 101.19C130.561 101.662 130.251 101.839 129.745 101.839C128.957 101.839 128.675 101.544 128.478 101.22C128.141 100.66 127.578 99.5396 127.015 97.4176L107.004 12.182C106.076 8.05576 104.415 4.9611 102.051 3.01589C99.6868 1.04121 96.9005 0.0686035 93.7765 0.0686035C90.6525 0.0686035 88.007 1.10014 85.6429 3.13377C83.3069 5.13792 81.6464 8.26205 80.7176 12.3883L61.8047 97.6828C61.3826 99.8344 60.8196 100.836 60.4256 101.308C60.0034 101.809 59.525 102.045 58.934 102.045C58.6244 102.045 58.2586 101.956 57.8646 101.367C57.4987 100.836 56.9921 99.7754 56.5418 97.6828L36.3905 0.274935H22.5717L43.8487 101.455C44.7775 105.906 46.6068 109.354 49.3368 111.712L49.365 111.682Z" fill="white"/>
<path d="M158.846 71.5699C158.846 79.7339 160.647 87.1906 164.165 93.7041C167.683 100.247 172.637 105.523 178.828 109.325C185.02 113.156 192.056 115.072 199.768 115.072C207.029 115.072 213.727 113.363 219.637 109.914C225.604 106.466 230.445 101.249 234.047 94.4409L234.948 92.7315L224.197 86.6306L223.296 88.2811C220.791 92.9378 217.47 96.3272 213.418 98.3903C209.252 100.483 204.665 101.544 199.768 101.544C193.998 101.544 188.904 100.07 184.598 97.1229C180.264 94.1757 176.943 90.1674 174.719 85.2159C173.593 82.7402 172.805 80.0876 172.355 77.2582H236.299V69.2711C236.299 61.4313 234.695 54.3578 231.542 48.198C228.362 42.0381 223.887 37.0867 218.202 33.5499C212.489 30.0132 205.706 28.2153 198.023 28.2153C190.339 28.2153 183.388 30.19 177.506 34.0804C171.623 37.9414 166.98 43.2465 163.743 49.7895C160.478 56.303 158.846 63.6417 158.846 71.5699ZM176.436 54.2399C178.631 50.4084 181.586 47.3138 185.217 45.1033C188.876 42.8928 193.182 41.7728 198.051 41.7728C202.92 41.7728 207.113 42.8339 210.744 44.897C214.403 46.9601 217.358 49.9074 219.497 53.6799C221.382 56.9809 222.48 60.8418 222.79 65.2038H172.637C173.284 61.225 174.55 57.5409 176.408 54.2399H176.436Z" fill="white"/>
<path d="M39.008 151.324C46.2129 146.755 54.234 144.456 63.1557 144.456C72.0774 144.456 80.0985 146.755 87.2753 151.324C94.4802 155.862 100.137 162.022 104.359 169.715C108.552 177.407 110.663 185.836 110.663 194.973C110.663 204.11 108.552 212.509 104.359 220.113C102.164 224.092 99.5743 227.629 96.591 230.724C107.905 221.764 115.194 207.794 122.596 191.613C123.525 189.609 124.454 187.575 125.383 185.512C124.398 176.759 121.808 168.742 117.812 161.374C112.38 151.442 104.95 143.572 95.5497 137.796C86.1214 131.989 75.4829 129.101 63.606 129.101C53.0238 129.101 43.4266 131.724 34.7864 137.029C28.6791 140.713 23.4724 145.282 19.1664 150.734V175.079C19.8981 173.222 20.7706 171.395 21.7556 169.656C26.0617 161.963 31.8031 155.804 38.9798 151.265L39.008 151.324Z" fill="white"/>
<path d="M247.247 189.609C242.012 182.181 236.777 174.961 231.176 168.683C233.541 174.194 234.807 180.472 234.92 187.457H148.798C147.644 189.903 146.462 192.467 145.252 195.15L144.802 196.152C142.663 200.897 140.44 205.848 138.047 210.682C137.4 212.008 136.753 213.305 136.077 214.602C137.4 219.317 139.173 223.768 141.453 228.071C146.828 237.974 154.23 245.872 163.63 251.649C173.002 257.455 183.585 260.314 195.293 260.314C206.353 260.314 216.373 257.75 225.351 252.563C234.357 247.376 241.562 239.595 247.022 229.25L235.145 222.471C230.839 230.429 225.21 236.176 218.174 239.742C211.166 243.279 203.539 245.047 195.293 245.047C185.555 245.047 177.027 242.542 169.681 237.502C162.336 232.462 156.763 225.801 152.992 217.431C150.6 212.155 149.136 206.526 148.573 200.455H250.258V193.971C249.78 193.293 249.329 192.674 248.879 192.025L247.219 189.609H247.247Z" fill="white"/>
<path d="M676.136 173.517C666.117 188.843 663.049 207.735 652.777 222.707C643.771 235.852 630.064 245.224 614.191 244.605C582.135 243.367 567.303 210.358 553.906 184.775C543.493 164.911 531.644 144.25 510.986 134.73C493.509 126.684 472.597 127.215 455.683 136.528C436.798 146.903 427.707 167.976 419.321 187.398C417.998 190.522 416.647 193.588 415.268 196.682C409.723 209.179 403.25 221.882 393.118 230.989C375.331 246.963 350.339 248.319 328.781 241.098C300.496 231.637 282.737 208.236 265.935 184.127C264.921 182.683 263.908 181.209 262.895 179.765C252.088 164.233 239.845 146.726 223.352 137.206C216.964 133.492 209.899 131.164 202.723 129.808C173.734 124.326 152.119 140.979 138.582 166.561C128.732 185.158 121.864 205.701 109.115 222.501C92.9322 243.839 62.1987 253.123 39.0079 238.357C31.8311 233.818 26.0897 227.717 21.7837 220.084C18.0405 213.452 15.9296 206.202 15.4793 198.392C15.423 197.272 15.3668 196.122 15.3668 194.943C15.3668 193.764 15.423 192.644 15.4793 191.525V155.98C15.4793 155.98 15.3668 156.069 15.3668 156.128V74.1045H0V194.914C0 207.204 2.81448 218.256 8.41517 228.218C10.526 231.843 12.8338 235.292 15.4793 238.357C19.898 243.662 25.161 248.142 31.1838 251.797C58.0897 268.125 95.5778 261.11 116.489 237.502C134.107 217.638 140.665 191.466 153.977 168.86C167.148 146.519 191.887 137.029 215.191 150.056C215.613 150.292 216.007 150.528 216.401 150.793C229.206 158.485 239.451 171.954 250.146 187.192C265.906 209.591 281.133 232.492 304.914 246.138C324.109 257.161 346.99 262.849 368.773 258.9C385.322 255.893 400.295 246.992 411.018 233.435C417.322 225.477 422.163 216.37 426.469 207.116C428.58 202.577 430.522 198.038 432.492 193.558C437.952 181.003 443.13 167.416 452.446 157.336C466.265 142.393 490.3 140.477 507.581 149.673C524.27 158.544 533.642 177.171 542.086 193.764C549.009 207.381 555.707 221.381 565.079 233.376C591.085 266.651 639.07 268.685 663.866 232.934C672.337 220.703 675.602 206.408 681.85 193.087C686.437 183.302 692.77 174.312 700.565 167.091C717.508 151.323 740.136 145.282 762.342 144.191C763.018 144.162 770.363 143.926 770.363 144.014V128.865C727.049 128.865 695.471 143.837 676.136 173.428V173.517Z" fill="url(#paint0_linear_2041_19)"/>
<path d="M262.895 211.743V257.721H278.234V230.311C277.305 229.368 276.433 228.425 275.532 227.393C271.535 222.943 267.539 217.932 262.895 211.743Z" fill="white"/>
<path d="M267.37 179.706L268.918 181.887C272.267 186.75 275.279 191.024 278.234 195.061V74.1931H262.895V173.281C263.908 174.725 264.893 176.169 265.878 177.555L267.37 179.736V179.706Z" fill="white"/>
<path d="M296.752 217.166C306.012 226.332 315.581 232.757 325.994 236.559C319.943 232.197 314.962 226.627 311.162 219.878C306.913 212.303 304.745 203.903 304.745 194.737C304.745 185.571 306.913 177.201 311.162 169.597C315.468 161.963 321.21 155.862 328.358 151.324C335.563 146.755 343.584 144.456 352.506 144.456C361.428 144.456 369.477 146.755 376.626 151.324C383.831 155.862 389.488 161.963 393.709 169.597C397.903 177.201 400.014 185.542 400.014 194.737C400.014 203.933 397.903 212.303 393.709 219.878C390.613 225.507 386.673 230.282 381.945 234.231C396.833 225.979 404.714 211.036 411.89 195.091L412.144 194.59C413.101 192.409 414.058 190.198 415.043 187.958C414.226 178.557 411.581 169.774 407.078 161.669C401.533 151.766 394.103 143.838 384.675 137.972C375.303 132.107 364.552 129.16 352.506 129.16C340.46 129.16 330.132 132.107 320.563 137.972C310.994 143.838 303.395 151.736 297.794 161.551C292.165 171.424 289.379 182.388 289.379 194.472C289.379 200.484 290.082 206.202 291.461 211.655C293.235 213.659 295.008 215.486 296.752 217.166Z" fill="white"/>
<path d="M429.847 208.914C428.777 211.242 427.651 213.57 426.526 215.869V257.75H441.836V194.767C441.836 188.371 442.652 182.3 444.313 176.67C441.47 182.27 438.768 188.548 435.897 195.268C434.096 199.453 432.042 204.228 429.847 208.943V208.914Z" fill="white"/>
<path d="M538.849 195.651C532.038 182.27 525.677 170.746 517.741 162.435C519.289 164.763 520.668 167.298 521.794 169.98C525.086 177.702 526.747 186.013 526.747 195.002V257.75H542.114V202.076C541.776 201.398 541.438 200.779 541.1 200.101C540.369 198.628 539.581 197.095 538.821 195.651H538.849Z" fill="white"/>
<path d="M560.52 189.462C563.925 196.181 567.134 202.606 570.483 208.472C569.217 203.933 568.569 199.188 568.569 194.207C568.569 185.041 570.68 176.7 574.986 169.214C579.292 161.669 585.005 155.686 592.21 151.176C599.359 146.726 607.324 144.456 616.077 144.456C624.829 144.456 633.048 146.696 640.196 151.176C647.401 155.686 653.086 161.669 657.392 169.214C660.882 175.256 662.965 181.887 663.584 189.049C666.286 182.653 669.494 176.7 673.012 171.336C673.519 170.599 674.026 169.862 674.532 169.125C673.463 166.443 672.196 163.82 670.761 161.285C665.16 151.471 657.618 143.661 648.133 137.855C638.62 132.048 627.953 129.16 616.077 129.16C604.2 129.16 593.533 132.107 584.021 137.972C574.536 143.838 567.021 151.766 561.505 161.669C558.522 167.062 556.298 172.75 554.948 178.733C555.679 180.119 556.439 181.563 557.143 182.948C558.269 185.129 559.338 187.251 560.492 189.491L560.52 189.462Z" fill="white"/>
<path d="M663.894 239.359V246.816C663.894 258.045 661.783 267.918 657.561 276.407C653.368 284.865 647.542 291.438 640.112 296.095C632.71 300.751 624.126 303.109 614.388 303.109C604.65 303.109 596.432 301.046 588.749 296.89C581.093 292.735 575.099 286.722 570.821 278.764L557.959 286.31C563.419 296.831 571.215 304.819 581.347 310.271C591.507 315.723 602.595 318.435 614.669 318.435C626.743 318.435 638.31 315.488 648.105 309.623C657.814 303.757 665.47 295.476 670.986 284.865C676.53 274.226 679.26 261.759 679.26 247.405V210.24C676.052 219.789 671.858 228.248 666.961 235.38C666.004 236.766 664.991 238.121 663.95 239.418L663.894 239.359Z" fill="white"/>
<defs>
<linearGradient id="paint0_linear_2041_19" x1="0" y1="167.475" x2="770.391" y2="167.475" gradientUnits="userSpaceOnUse">
<stop stop-color="#F7941D"/>
<stop offset="0.15" stop-color="#E01F26"/>
<stop offset="0.3" stop-color="#662B82"/>
<stop offset="0.46" stop-color="#332F81"/>
<stop offset="0.63" stop-color="#209DD8"/>
<stop offset="0.8" stop-color="#3BA949"/>
<stop offset="1" stop-color="#FDEB07"/>
</linearGradient>
</defs>
</svg>
