<svg width="811" height="359" viewBox="0 0 811 359" fill="none" xmlns="http://www.w3.org/2000/svg">
<g filter="url(#filter0_d_2041_19)">
<path d="M69.365 131.682C72.0949 134.04 75.3316 135.249 78.9903 135.249C82.6491 135.249 85.6886 134.04 88.3341 131.653C90.9234 129.325 92.6965 125.994 93.6252 121.78L112.679 35.5419C113.017 33.9798 113.354 33.5377 113.411 33.4493C113.523 33.3314 113.608 33.2724 113.833 33.2724C114.002 33.2724 114.199 33.2724 114.255 33.3609C114.311 33.4493 114.649 33.9208 114.987 35.5713L134.828 120.188C136.067 125.11 137.868 128.824 140.26 131.24C142.737 133.775 146.086 135.072 150.223 135.072C154.36 135.072 157.766 133.628 160.214 130.739C162.522 128.028 164.07 124.432 164.858 120.1L183.884 20.2454H170.093L151.996 117.565C151.715 119.156 151.349 120.394 150.842 121.19C150.561 121.662 150.251 121.839 149.745 121.839C148.957 121.839 148.675 121.544 148.478 121.22C148.141 120.66 147.578 119.54 147.015 117.418L127.004 32.182C126.076 28.0558 124.415 24.9611 122.051 23.0159C119.687 21.0412 116.901 20.0686 113.776 20.0686C110.652 20.0686 108.007 21.1001 105.643 23.1338C103.307 25.1379 101.646 28.262 100.718 32.3883L81.8047 117.683C81.3826 119.834 80.8196 120.836 80.4256 121.308C80.0034 121.809 79.525 122.045 78.934 122.045C78.6244 122.045 78.2586 121.956 77.8646 121.367C77.4987 120.836 76.9921 119.775 76.5418 117.683L56.3905 20.2749H42.5717L63.8487 121.455C64.7775 125.906 66.6068 129.354 69.3368 131.712L69.365 131.682Z" fill="white"/>
<path d="M178.846 91.5699C178.846 99.7339 180.647 107.191 184.165 113.704C187.683 120.247 192.637 125.523 198.828 129.325C205.02 133.156 212.056 135.072 219.768 135.072C227.029 135.072 233.727 133.363 239.637 129.914C245.604 126.466 250.445 121.249 254.047 114.441L254.948 112.732L244.197 106.631L243.296 108.281C240.791 112.938 237.47 116.327 233.418 118.39C229.252 120.483 224.665 121.544 219.768 121.544C213.998 121.544 208.904 120.07 204.598 117.123C200.264 114.176 196.943 110.167 194.719 105.216C193.593 102.74 192.805 100.088 192.355 97.2582H256.299V89.2711C256.299 81.4313 254.695 74.3578 251.542 68.198C248.362 62.0381 243.887 57.0867 238.202 53.5499C232.489 50.0132 225.706 48.2153 218.023 48.2153C210.339 48.2153 203.388 50.19 197.506 54.0804C191.623 57.9414 186.98 63.2465 183.743 69.7895C180.478 76.303 178.846 83.6417 178.846 91.5699ZM196.436 74.2399C198.631 70.4084 201.586 67.3138 205.217 65.1033C208.876 62.8928 213.182 61.7728 218.051 61.7728C222.92 61.7728 227.113 62.8339 230.744 64.897C234.403 66.9601 237.358 69.9074 239.497 73.6799C241.382 76.9809 242.48 80.8418 242.79 85.2038H192.637C193.284 81.225 194.55 77.5409 196.408 74.2399H196.436Z" fill="white"/>
<path d="M59.008 171.324C66.2129 166.755 74.234 164.456 83.1557 164.456C92.0774 164.456 100.099 166.755 107.275 171.324C114.48 175.862 120.137 182.022 124.359 189.715C128.552 197.407 130.663 205.836 130.663 214.973C130.663 224.11 128.552 232.509 124.359 240.113C122.164 244.092 119.574 247.629 116.591 250.724C127.905 241.764 135.194 227.794 142.596 211.613C143.525 209.609 144.454 207.575 145.383 205.512C144.398 196.759 141.808 188.742 137.812 181.374C132.38 171.442 124.95 163.572 115.55 157.796C106.121 151.989 95.4829 149.101 83.606 149.101C73.0238 149.101 63.4266 151.724 54.7864 157.029C48.6791 160.713 43.4724 165.282 39.1664 170.734V195.079C39.8981 193.222 40.7705 191.395 41.7556 189.656C46.0617 181.963 51.8031 175.804 58.9798 171.265L59.008 171.324Z" fill="white"/>
<path d="M267.247 209.609C262.012 202.181 256.777 194.961 251.176 188.683C253.541 194.194 254.807 200.472 254.92 207.457H168.798C167.644 209.903 166.462 212.467 165.252 215.15L164.802 216.152C162.663 220.897 160.44 225.848 158.047 230.682C157.4 232.008 156.753 233.305 156.077 234.602C157.4 239.317 159.173 243.768 161.453 248.071C166.828 257.974 174.23 265.872 183.63 271.649C193.002 277.455 203.585 280.314 215.293 280.314C226.353 280.314 236.373 277.75 245.351 272.563C254.357 267.376 261.562 259.595 267.022 249.25L255.145 242.471C250.839 250.429 245.21 256.176 238.174 259.742C231.166 263.279 223.539 265.047 215.293 265.047C205.555 265.047 197.027 262.542 189.681 257.502C182.336 252.462 176.763 245.801 172.992 237.431C170.6 232.155 169.136 226.526 168.573 220.455H270.258V213.971C269.78 213.293 269.329 212.674 268.879 212.025L267.219 209.609H267.247Z" fill="white"/>
<path d="M696.136 193.517C686.117 208.843 683.049 227.735 672.777 242.707C663.771 255.852 650.064 265.224 634.191 264.605C602.135 263.367 587.303 230.358 573.906 204.775C563.493 184.911 551.644 164.25 530.986 154.73C513.509 146.684 492.597 147.215 475.683 156.528C456.798 166.903 447.707 187.976 439.321 207.398C437.998 210.522 436.647 213.588 435.268 216.682C429.723 229.179 423.25 241.882 413.118 250.989C395.331 266.963 370.339 268.319 348.781 261.098C320.496 251.637 302.737 228.236 285.935 204.127C284.921 202.683 283.908 201.209 282.895 199.765C272.088 184.233 259.845 166.726 243.352 157.206C236.964 153.492 229.899 151.164 222.723 149.808C193.734 144.326 172.119 160.979 158.582 186.561C148.732 205.158 141.864 225.701 129.115 242.501C112.932 263.839 82.1987 273.123 59.0079 258.357C51.8311 253.818 46.0897 247.717 41.7837 240.084C38.0405 233.452 35.9296 226.202 35.4793 218.392C35.423 217.272 35.3668 216.122 35.3668 214.943C35.3668 213.764 35.423 212.644 35.4793 211.525V175.98C35.4793 175.98 35.3668 176.069 35.3668 176.128V94.1045H20V214.914C20 227.204 22.8145 238.256 28.4152 248.218C30.526 251.843 32.8338 255.292 35.4793 258.357C39.898 263.662 45.161 268.142 51.1838 271.797C78.0897 288.125 115.578 281.11 136.489 257.502C154.107 237.638 160.665 211.466 173.977 188.86C187.148 166.519 211.887 157.029 235.191 170.056C235.613 170.292 236.007 170.528 236.401 170.793C249.206 178.485 259.451 191.954 270.146 207.192C285.906 229.591 301.133 252.492 324.914 266.138C344.109 277.161 366.99 282.849 388.773 278.9C405.322 275.893 420.295 266.992 431.018 253.435C437.322 245.477 442.163 236.37 446.469 227.116C448.58 222.577 450.522 218.038 452.492 213.558C457.952 201.003 463.13 187.416 472.446 177.336C486.265 162.393 510.3 160.477 527.581 169.673C544.27 178.544 553.642 197.171 562.086 213.764C569.009 227.381 575.707 241.381 585.079 253.376C611.085 286.651 659.07 288.685 683.866 252.934C692.337 240.703 695.602 226.408 701.85 213.087C706.437 203.302 712.77 194.312 720.565 187.091C737.508 171.323 760.136 165.282 782.342 164.191C783.018 164.162 790.363 163.926 790.363 164.014V148.865C747.049 148.865 715.471 163.837 696.136 193.428V193.517Z" fill="url(#paint0_linear_2041_19)"/>
<path d="M282.895 231.743V277.721H298.234V250.311C297.305 249.368 296.433 248.425 295.532 247.393C291.535 242.943 287.539 237.932 282.895 231.743Z" fill="white"/>
<path d="M287.37 199.706L288.918 201.887C292.267 206.75 295.279 211.024 298.234 215.061V94.1931H282.895V193.281C283.908 194.725 284.893 196.169 285.878 197.555L287.37 199.736V199.706Z" fill="white"/>
<path d="M316.752 237.166C326.012 246.332 335.581 252.757 345.994 256.559C339.943 252.197 334.962 246.627 331.162 239.878C326.913 232.303 324.745 223.903 324.745 214.737C324.745 205.571 326.913 197.201 331.162 189.597C335.468 181.963 341.21 175.862 348.358 171.324C355.563 166.755 363.584 164.456 372.506 164.456C381.428 164.456 389.477 166.755 396.626 171.324C403.831 175.862 409.488 181.963 413.709 189.597C417.903 197.201 420.014 205.542 420.014 214.737C420.014 223.933 417.903 232.303 413.709 239.878C410.613 245.507 406.673 250.282 401.945 254.231C416.833 245.979 424.714 231.036 431.89 215.091L432.144 214.59C433.101 212.409 434.058 210.198 435.043 207.958C434.226 198.557 431.581 189.774 427.078 181.669C421.533 171.766 414.103 163.838 404.675 157.972C395.303 152.107 384.552 149.16 372.506 149.16C360.46 149.16 350.132 152.107 340.563 157.972C330.994 163.838 323.395 171.736 317.794 181.551C312.165 191.424 309.379 202.388 309.379 214.472C309.379 220.484 310.082 226.202 311.461 231.655C313.235 233.659 315.008 235.486 316.752 237.166Z" fill="white"/>
<path d="M449.847 228.914C448.777 231.242 447.651 233.57 446.526 235.869V277.75H461.836V214.767C461.836 208.371 462.652 202.3 464.313 196.67C461.47 202.27 458.768 208.548 455.897 215.268C454.096 219.453 452.042 224.228 449.847 228.943V228.914Z" fill="white"/>
<path d="M558.849 215.651C552.038 202.27 545.677 190.746 537.741 182.435C539.289 184.763 540.668 187.298 541.794 189.98C545.086 197.702 546.747 206.013 546.747 215.002V277.75H562.114V222.076C561.776 221.398 561.438 220.779 561.1 220.101C560.369 218.628 559.581 217.095 558.821 215.651H558.849Z" fill="white"/>
<path d="M580.52 209.462C583.925 216.181 587.134 222.606 590.483 228.472C589.217 223.933 588.569 219.188 588.569 214.207C588.569 205.041 590.68 196.7 594.986 189.214C599.292 181.669 605.005 175.686 612.21 171.176C619.359 166.726 627.324 164.456 636.077 164.456C644.829 164.456 653.048 166.696 660.196 171.176C667.401 175.686 673.086 181.669 677.392 189.214C680.882 195.256 682.965 201.887 683.584 209.049C686.286 202.653 689.494 196.7 693.012 191.336C693.519 190.599 694.026 189.862 694.532 189.125C693.463 186.443 692.196 183.82 690.761 181.285C685.16 171.471 677.618 163.661 668.133 157.855C658.62 152.048 647.953 149.16 636.077 149.16C624.2 149.16 613.533 152.107 604.021 157.972C594.536 163.838 587.021 171.766 581.505 181.669C578.522 187.062 576.298 192.75 574.948 198.733C575.679 200.119 576.439 201.563 577.143 202.948C578.269 205.129 579.338 207.251 580.492 209.491L580.52 209.462Z" fill="white"/>
<path d="M683.894 259.359V266.816C683.894 278.045 681.783 287.918 677.561 296.407C673.368 304.865 667.542 311.438 660.112 316.095C652.71 320.751 644.126 323.109 634.388 323.109C624.65 323.109 616.432 321.046 608.749 316.89C601.093 312.735 595.099 306.722 590.821 298.764L577.959 306.31C583.419 316.831 591.215 324.819 601.347 330.271C611.507 335.723 622.595 338.435 634.669 338.435C646.743 338.435 658.31 335.488 668.105 329.623C677.814 323.757 685.47 315.476 690.986 304.865C696.53 294.226 699.26 281.759 699.26 267.405V230.24C696.052 239.789 691.858 248.248 686.961 255.38C686.004 256.766 684.991 258.121 683.95 259.418L683.894 259.359Z" fill="white"/>
</g>
<defs>
<filter id="filter0_d_2041_19" x="0" y="0.0686035" width="810.363" height="358.366" filterUnits="userSpaceOnUse" color-interpolation-filters="sRGB">
<feFlood flood-opacity="0" result="BackgroundImageFix"/>
<feColorMatrix in="SourceAlpha" type="matrix" values="0 0 0 0 0 0 0 0 0 0 0 0 0 0 0 0 0 0 127 0" result="hardAlpha"/>
<feOffset/>
<feGaussianBlur stdDeviation="10"/>
<feComposite in2="hardAlpha" operator="out"/>
<feColorMatrix type="matrix" values="0 0 0 0 0 0 0 0 0 0 0 0 0 0 0 0 0 0 0.5 0"/>
<feBlend mode="normal" in2="BackgroundImageFix" result="effect1_dropShadow_2041_19"/>
<feBlend mode="normal" in="SourceGraphic" in2="effect1_dropShadow_2041_19" result="shape"/>
</filter>
<linearGradient id="paint0_linear_2041_19" x1="20" y1="187.475" x2="790.391" y2="187.475" gradientUnits="userSpaceOnUse">
<stop stop-color="#F7941D"/>
<stop offset="0.15" stop-color="#E01F26"/>
<stop offset="0.3" stop-color="#662B82"/>
<stop offset="0.46" stop-color="#332F81"/>
<stop offset="0.63" stop-color="#209DD8"/>
<stop offset="0.8" stop-color="#3BA949"/>
<stop offset="1" stop-color="#FDEB07"/>
</linearGradient>
</defs>
</svg>
